<svg width="160" height="150" viewBox="0 0 160 150" fill="none" xmlns="http://www.w3.org/2000/svg" role="img" aria-label="NAORU">
  <path d="M16 70c10-5 22-6 34-3.5" stroke="#15151a" stroke-width="6.5" stroke-linecap="round"/>
  <path d="M10 92c12-6 26-7 40-4.5" stroke="#15151a" stroke-width="6.5" stroke-linecap="round"/>
  <path d="M98 30c-8 0-15 4.5-18.5 11C76 34 70 30 62.5 29.5 51 28.7 41 38 41 49.5c0 4.2 1.3 8 3.5 11.5 6.4 10.4 22 23 32 33.5 1.2 1.2 3.2 1.4 4.6.5 12-8 30-22.5 36-35.5 1.7-3.5 2.7-7.5 2.5-11.7C119 36 110 29.3 98 30z" fill="#EA5532" stroke="#15151a" stroke-width="6" stroke-linejoin="round"/>
  <path d="M72 92c-4 10-2.5 20 7.5 27" stroke="#15151a" stroke-width="6.5" stroke-linecap="round" fill="none"/>
  <text x="80" y="142" text-anchor="middle" font-family="Helvetica, Arial, sans-serif" font-size="22" font-weight="600" letter-spacing="5" fill="#15151a">NAORU</text>
</svg>
